<?xml version="1.0" encoding="UTF-8" standalone="no"?>
<!-- Created with Inkscape (http://www.inkscape.org/) -->

<svg
   version="1.1"
   id="svg2"
   width="666.66669"
   height="666.66669"
   viewBox="0 0 666.66669 666.66669"
   sodipodi:docname="9519388.eps"
   xmlns:inkscape="http://www.inkscape.org/namespaces/inkscape"
   xmlns:sodipodi="http://sodipodi.sourceforge.net/DTD/sodipodi-0.dtd"
   xmlns="http://www.w3.org/2000/svg"
   xmlns:svg="http://www.w3.org/2000/svg">
  <defs
     id="defs6" />
  <sodipodi:namedview
     id="namedview4"
     pagecolor="#ffffff"
     bordercolor="#000000"
     borderopacity="0.25"
     inkscape:showpageshadow="2"
     inkscape:pageopacity="0.0"
     inkscape:pagecheckerboard="0"
     inkscape:deskcolor="#d1d1d1" />
  <g
     id="g8"
     inkscape:groupmode="layer"
     inkscape:label="ink_ext_XXXXXX"
     transform="matrix(1.3333333,0,0,-1.3333333,0,666.66667)">
    <g
       id="g10"
       transform="scale(0.1)">
      <path
         d="M 5000,5000 V 0 H 0 v 5000 h 5000"
         style="fill:#ffffff;fill-opacity:1;fill-rule:nonzero;stroke:none"
         id="path12" />
      <path
         d="m 4475.67,3683.68 c -13.38,86.18 -33.06,173.2 -79.2,248.3 -32.61,55.48 -75.44,104.63 -129.51,140.06 -41.58,27.67 -87.07,51.94 -136.47,61.62 -138.69,26.47 -279.41,-7.32 -413.1,-44 -122.62,-32.64 -242.91,-73.45 -357.16,-129.02 -235.08,-109.89 -447.98,-259.68 -656.77,-412.4 -217.9,-159.86 -433.42,-323 -654.71,-478.18 -163.39,-116.01 -331.83,-224.69 -501.99,-330.46 -142.18,-88.55 -286.46,-174.08 -423.14,-271.09 -77.24,-55.61 -152.565,-114.07 -222.796,-178.37 -62.23,-61.17 -118.836,-127.77 -169.621,-198.72 -36.133,-52.86 -72.211,-106.12 -99.301,-164.33 -28.144,-61.64 -47.531,-127.42 -59.339,-194.1 -10.661,-67.92 -15.305,-137.89 -4.719,-206.09 18.578,-98.61 69.715,-188.96 135.476,-263.86 62.543,-67.67 142.496,-113.26 221.618,-163.04 69.07,-40.09 138.392,-80.41 211.992,-111.73 30.49,-12.36 61.03,-26.629 93.87,-31.282 5.65,-0.199 12.53,-2.527 17.36,1.231 4.21,3.82 0.93,11.511 -4.67,11.269 -24.68,-1.156 -49.33,10.332 -76,19.621 -37.94,14.081 -69.56,29.251 -107.36,48.261 -85.978,45.31 -170.13,94.2 -250.31,149.2 -51.578,34.82 -97.316,72.03 -134.668,124.23 -52.488,68.92 -92.027,150.53 -103.371,236.95 -11.867,123.39 11.856,248.87 59.34,362.85 27.43,63.09 65.926,120.28 104.465,176.96 192.254,278.87 494.934,448.49 776.324,625.13 219.8,135.64 435.09,278.54 644.45,429.81 206.52,147.06 408.57,300.25 614.65,447.91 202.31,145.3 411.59,283.16 640.73,382.66 94.09,43.01 205.1,77.27 312.73,105.61 130.67,35.28 265.67,65.55 394.99,43.11 81.5,-16.01 151.76,-61.18 210.19,-119.67 39.19,-41.56 74.57,-104.12 95.3,-155.65 15.3,-42.5 25.06,-86.83 34.12,-131 32.89,-181.15 4.82,-369.83 -32.11,-551.31 -42.6,-198.48 -115.61,-382.82 -212.59,-559.71 -172.7,-310.61 -407.28,-580.51 -609.8,-871.29 -95.9,-136.07 -189.62,-276.08 -246.77,-433.53 -13.19,-36.26 -23.72,-73.52 -30.6,-111.5 -9.15,-54.63 -14.84,-108.13 -44.53,-152.29 -6.62,-9.41 -8.48,-12.04 -15.86,-20.83 -1.24,-1.24 -1.96,-2.94 -1.95,-4.7 -0.25,-6.48 9.75,-9.26 12.8,-2.95 6.74,8.16 13.5,16.39 19.03,25.44 29.34,44.78 35.17,98.87 43.44,150.52 6.58,39.35 17.3,77.91 30.7,115.47 64.7,179.41 182.73,343.82 296.43,501.23 198.04,271.73 416.28,531.91 573.28,830.78 92.66,175.65 162.76,363.4 201.18,558.45 31.27,162.13 56.05,329.58 33.95,494.43"
         style="fill:#e4f6fc;fill-opacity:1;fill-rule:nonzero;stroke:none"
         id="path14" />
      <path
         d="m 3864.13,3281.48 c -21.49,46.33 -58.95,85.15 -102.19,111.87 -26.48,14.81 -55.89,23.67 -85.16,31.14 -123.95,30.35 -253.23,7.6 -373.87,-27.11 -128.24,-35.9 -250,-90.68 -363.02,-160.98 -166.56,-98.18 -320.82,-215.45 -473.89,-333.14 -170.43,-134.4 -340.34,-270.13 -497.21,-420.39 -102.93,-96.94 -202.6,-198.11 -285.13,-313.34 -90.59,-119.83 -145.9,-263.21 -170.77,-410.77 -14.04,-111.3 -10.32,-224.36 5.18,-335.31 14.05,-110.12 46.76,-218.05 98.64,-316.32 5.05,-12.88 55.13,-94.12 52.12,-69.92 -37,43.4 -61.49,96.56 -83.15,148.56 -42.63,99.89 -62.6,206.99 -72.19,314.43 -7.88,86.54 -7.45,174.05 3.46,260.3 25.5,148.24 81.73,292.08 173.53,412.3 77.76,107.31 170.57,203.24 267.05,294.38 167.29,161.64 349.76,306.39 532.55,449.91 152.13,116.15 307.52,233.04 474.2,329.35 106.68,64.86 221.29,113.87 341.42,147.66 119.55,34.32 247.65,56.8 370.44,26.71 36.43,-9.38 73.66,-20.63 103.86,-43.9 38.6,-29.93 73.81,-68.84 88.04,-116.43 31.75,-94.1 13.49,-194.08 -24.62,-283.41 -23.4,-55.86 -59.75,-104.17 -100.4,-148.59 -48.52,-55.07 -102.21,-105.62 -160.22,-150.58 -280.26,-214.95 -584.11,-410.01 -845.37,-652.04 -56.94,-56.15 -114.32,-114 -152.34,-185.11 -71.5,-130.57 -120.85,-273.28 -155.9,-417.67 -9.81,-43.68 -11.08,-88.54 -11.62,-133.14 -0.09,-57.84 3.27,-109.6 16.68,-164.54 18.27,-64.33 56.02,-120.77 97.89,-172.15 4,-4.27 6.99,-9.852 11.79,-13.121 3.63,-1.809 8.32,1.359 8.17,5.391 -3.3,9.23 -8.99,11.39 -15.01,20.57 -36.04,46.23 -74.86,103.43 -91.59,162.42 -13.47,53.44 -17.49,102.56 -18.68,158.44 -0.88,54.16 2.06,102.78 15.07,154.39 40.17,150.51 90.1,299.4 171.29,432.58 42.31,62.72 97.6,118.25 153.68,170.07 100.94,88.82 203.97,175.17 311.02,254.51 185.1,138.63 378.32,267.01 556.88,414.1 43.58,38.55 84.17,80.48 121.64,124.98 38.93,44.11 72.33,93.12 93.42,148.32 39.15,94.44 53.05,198.49 14.31,295.58"
         style="fill:#e4f6fc;fill-opacity:1;fill-rule:nonzero;stroke:none"
         id="path16" />
      <path
         d="m 4418.1,2298.7 c -61.5,-111 -140.2,-303.7 46.1,-325.4 79.3,-4.9 153.4,12.5 230.5,32.9 108.7,29.1 207.7,75.7 305.3,129.3 v -7.8 c -40,-22.2 -80.2,-43.9 -121.6,-63.2 -64.6,-29.6 -132.1,-52.8 -200.3,-72.3 -74.6,-17.3 -152.1,-36.9 -229,-25.4 -127.1,24.1 -117.8,135.9 -82.5,233.4 39.6,96.5 94.8,185.6 147.9,275 103.5,171.8 215.1,338.5 323.3,507.3 40.3,65.1 105.2,163.9 162.2,269.3 v -9.5 c -56.4,-104 -119.1,-200.6 -155.6,-259 -93.8,-146.5 -189.5,-291.7 -281.6,-439.3 -49.7,-80.9 -99.3,-161.9 -144.7,-245.3"
         style="fill:#e4f6fc;fill-opacity:1;fill-rule:nonzero;stroke:none"
         id="path18" />
      <path
         d="m 3796.1,5000 c -150.1,-22.1 -297,-66.3 -439,-118.5 C 3192.5,4815.7 3037.6,4729 2885.9,4637.9 2503.7,4408.3 2160.4,4122.9 1814,3843.9 1494.8,3590.4 1174.8,3330.3 807,3150 592.5,3048.1 243.301,2909.5 0,3009.2 v 4.5 c 65.3984,-27.3 138.301,-36.9 214.602,-33.2 227.296,10.3 442.5,100 643.398,201 349.1,179.7 654.8,429.6 961,672.4 345.3,278.3 688.3,562.4 1069.5,791 150.4,90.6 304.3,176.2 467.5,241.5 132,48.6 267.8,90.2 406.5,113.6 h 33.6"
         style="fill:#e4f6fc;fill-opacity:1;fill-rule:nonzero;stroke:none"
         id="path20" />
      <path
         d="m 5000,4686.6 v -5.9 c -111.1,62.9 -224.1,122.2 -339.4,176.8 -127.6,54.3 -259.9,97 -395.6,125.7 -29.4,5.9 -58.8,11.8 -88.4,16.8 h 27.7 c 20.7,-3.9 41.3,-8 61.9,-12.3 118.9,-25.1 235.6,-60 348.4,-105.4 98.7,-38.2 191.2,-89.9 284.3,-139.8 33.8,-18.4 67.5,-37.1 101.1,-55.9"
         style="fill:#e4f6fc;fill-opacity:1;fill-rule:nonzero;stroke:none"
         id="path22" />
      <path
         d="M 1758.2,5000 C 1636.9,4873.2 1522.6,4738.6 1403,4611.3 1254.5,4450.2 1087,4305.9 901.102,4189.6 756,4095.7 597.5,4019.2 426.699,3987.1 270.699,3956 124.199,3979.2 0,4077.2 v 6.9 c 82.8008,-65.8 187,-105.8 293.199,-104.3 210.199,3.6 408,90.7 583.602,200.4 185.099,113.6 353.299,252.7 501.599,411.5 126.7,133.1 246.5,275 374,408.3 h 5.8"
         style="fill:#e4f6fc;fill-opacity:1;fill-rule:nonzero;stroke:none"
         id="path24" />
      <path
         d="M 182.801,2100.6 C 127.602,2030.6 65.6992,1966.6 0,1906.6 v 6.2 c 62.5,57.5 121.699,118.5 175.102,185 56.597,78.3 118.5,191.4 89,290.1 -25.801,62.6 -101,81.6 -161.602,92.7 -33.8984,4.4 -68.3008,4.4 -102.5,3.1 v 4 c 32,1.1 64,0.9 95.8008,-2.5 62.8012,-10.9 140.0002,-28.7 170.0002,-91.4 34.699,-97.9 -27.102,-214.2 -83,-293.2"
         style="fill:#e4f6fc;fill-opacity:1;fill-rule:nonzero;stroke:none"
         id="path26" />
      <path
         d="m 4366.76,963.891 c -45.25,20.668 -83.82,29.929 -130.57,37.109 -93.7,44.12 -380.61,61.46 -460.37,67.92 -392.06,27.82 -787.87,27.37 -1182.18,23.75 -182.92,-2.67 -366.02,-2.95 -548.85,-7.58 -0.37,0.06 -0.65,0.11 -0.93,0.06 -194.81,1.89 -389.53,-5.24 -583.22,-16.45 -171.21,-10.31 -342.42,-23.13 -510.917,-44.26 -94.317,-13.21 -192.379,-23.92 -277.891,-52.12 -26.879,-9.261 -58.066,-30.332 -33.344,-48.172 46.082,-32.777 202.215,-41.808 273.207,-46.378 253.445,-16.051 509.515,-9.418 762.585,-27.758 41.86,-3.852 118.29,-9.813 146.85,-25.59 6.47,-4.352 -3.55,-8.863 -14.98,-16.442 -35.78,-21.968 6.37,-37.519 39.99,-45.601 51.14,-12.32 106.21,-17.059 160.53,-21.688 77.46,-5.851 155.39,-8.859 233.31,-10.98 138.9,-3.461 277.99,-3.402 416.88,0.16 0.57,0 1.13,-0.051 1.78,-0.051 85.11,0 471.71,-4.441 663.29,18.578 14.67,0.293 29.11,0.622 43.03,1.032 39.56,1.41 79.26,2.84 118.42,8.058 14.3,2.473 30.58,2.442 42.61,10.223 17.97,16.008 -13.2,26.059 -27.62,30.437 -15.12,4.872 -40.49,10.692 -48.04,13.852 -1.17,0.551 0.54,-0.551 1.06,-0.941 -6.02,4.25 -3.92,1.722 -8.54,6.191 -0.48,0.539 -0.99,1.059 -1.42,1.48 -0.19,0.25 -0.35,0.512 -0.53,0.782 0.07,0.218 0.14,0.41 0.21,0.59 1.6,2.429 1.47,1.109 4.83,4.66 -0.28,-0.364 0.52,0.34 1.53,1.078 1.19,0.539 5.42,2.781 7.77,4.5 15.98,3.18 30.69,5.422 45.17,7.332 37.55,0.199 75.11,-0.613 112.65,0.558 66.76,3.43 133.83,6.602 200.82,10.649 68.21,-2.297 136.39,-5.77 204.62,-5.52 80.49,2.063 129.78,11.141 178.55,18.621 28.06,4.129 56.04,8.719 83.63,14.762 6.06,1.969 12.95,3.598 19.18,6.02 0.7,0.199 1.59,0.488 2.88,0.988 15.16,4.742 30.1,9.961 44.89,15.492 0.33,0.098 0.63,0.258 0.89,0.477 -2.06,-0.739 -4.12,-1.489 -6.18,-2.231 6.79,2.262 13.68,5.313 19.5,9.313 28.39,10.121 41.38,38.75 4.92,57.09"
         style="fill:#c7ecef;fill-opacity:1;fill-rule:nonzero;stroke:none"
         id="path28" />
      <path
         d="m 3806.01,2637.02 c -0.73,5.61 -0.32,7.24 0.16,12.69 0.17,4.8 0.25,9.52 -1.54,15.29 -1.47,4.8 -3.82,9.03 -3.42,12.69 2.85,10.01 -2.03,23.43 -1.71,36.2 0,5.53 -0.65,7.97 -0.89,11.47 0,2.36 0,4.15 -0.73,7 -0.08,0.4 -0.17,0.73 -0.17,1.06 3.91,6.42 7.89,10.25 10.66,17.4 2.36,9.6 -1.06,19.36 -0.08,27.99 1.87,9.27 9.76,22.61 14.72,34.16 10.5,25.06 23.11,49.38 35.88,73.78 0.24,-2.44 0.4,-4.96 0.65,-7.56 0.4,-3.34 1.3,-6.75 3.58,-9.36 3,-3.17 7.64,-4.06 11.47,-5.94 17.4,-7.97 35.95,-10.25 47.26,-21.47 5.69,-4.72 9.92,-7.81 11.14,-9.84 6.02,-8.87 8.95,-22.29 15.54,-30.91 0.49,-0.66 2.2,-2.53 4.64,-4.64 -0.17,-4.48 0.16,-9.19 1.38,-13.26 2.52,-9.44 4.64,-18.22 5.37,-24.97 0.24,-1.71 0.81,-3.42 1.71,-4.89 0.73,-1.3 1.79,-2.35 2.93,-3.25 0.08,-0.16 0.08,-0.16 0.24,-0.32 0.73,-0.9 1.63,-1.39 2.52,-2.04 -0.48,-3.25 -1.06,-6.67 -1.79,-10.33 -4.39,-19.69 -12.77,-42.38 -19.77,-58.98 -11.46,-25.38 -24.4,-50.11 -38.23,-74.35 -0.49,0.25 -1.06,0.41 -1.71,0.25 -4.55,-0.9 -7.07,-1.55 -10.08,-3.66 -2.12,-1.39 -2.85,-3.18 -4.64,-4.15 -3.33,-1.22 -13.26,-5.53 -20.09,-5.53 -8.22,2.27 -24.49,6.99 -32.3,10.73 -10.25,5.7 -20.17,11.72 -30.1,17.82 -0.81,6.26 -1.79,12.61 -2.6,16.92 z m -488,-25.54 c -0.97,-0.57 -2.2,-4.64 -2.2,-4.88 -3.17,-7.25 -3.49,-15.22 -4.55,-22.37 -0.73,-7.16 -3.42,-18.72 -1.14,-27.42 0.65,-1.95 1.63,-3.42 3.58,-5.29 -23.67,-8.46 -48.16,-18.06 -66.95,-23.42 -2.03,0.08 -5.13,-0.25 -8.7,-0.57 -6.35,5.93 -12.61,12.12 -18.87,18.54 -4.07,5.61 -7.57,11.39 -10.33,17.41 -8.47,26.03 -11.56,53.28 -14.65,80.86 5.86,6.67 16.27,6.18 25.38,12.77 6.35,4.72 6.1,13.51 6.91,20.66 0.5,4.72 1.39,9.6 0.25,14.32 -0.65,2.44 -1.63,4.88 -2.68,7.24 5.85,5.7 13.5,11.88 13.99,20.99 0.4,3.58 0.24,18.79 1.79,24.08 0.24,1.14 1.7,3.33 2.68,5.77 0.57,1.55 1.06,5.05 1.3,8.46 0.73,0.25 1.47,0.57 2.28,0.9 4.72,2.36 7.81,6.51 11.06,10.49 9.2,8.38 18.88,16.27 28.64,23.92 0.08,-0.08 0.08,-0.16 0.08,-0.25 2.93,-41.57 7.08,-81.67 14.97,-123.48 2.03,-11.23 9.68,-19.36 11.39,-29.69 0.97,-4.64 0.32,-8.54 3.01,-16.43 1.46,-3.67 3.57,-7 5.77,-10.25 -1.14,-0.66 -2.12,-1.47 -3.01,-2.36 z M 3991.32,992.922 c 0.24,-17.41 5.61,-34.57 12.93,-41.82 4.07,-4.063 10.33,-7.153 16.03,-6.02 0.08,0 0.08,0 0.08,0.09 3.01,-1.063 6.35,-1.551 7.32,-2.363 6.43,-2.36 17,-11.067 25.14,-15.457 24.56,-15.704 54.58,-6.75 82.73,-6.43 48.97,2.277 98.75,7.566 146.99,7.898 2.2,0.16 3.91,0 6.75,1.301 6.27,2.598 4.07,12.52 4.4,18.059 0,1.05 -0.41,4.058 -0.66,4.789 0,0.492 -0.08,0.98 -0.16,1.39 -0.41,3.5 -0.65,4.153 -3.9,7.321 -1.55,0.89 -4.07,1.629 -7.81,1.379 -6.1,16.429 -20.83,27.25 -35.71,35.23 -13.75,8.951 -25.95,17.811 -37.42,27.571 -10.82,9.03 -27.74,24.65 -29.61,29.53 -0.16,0.24 -0.25,0.65 -0.33,0.98 0.98,0.89 1.95,1.95 2.61,3.25 4.47,13.5 3.82,21.48 3.74,32.78 0.4,5.54 -0.25,11.15 -2.44,16.36 -1.71,5.61 -17.9,34.97 -20.42,38.39 -0.17,0.33 -0.33,0.73 -0.49,1.06 -0.16,0.41 -0.33,0.89 -0.49,1.38 -1.3,6.02 -0.98,3.82 -1.38,8.7 -1.3,7.98 8.54,15.46 8.87,32.95 0.24,35.55 -27.01,60.04 -40.35,83.3 -10.82,17.24 -13.34,39.37 -22.29,55.4 -12.12,27.33 -27.58,47.1 -32.46,70.45 -20.01,91.26 -44.33,181.56 -68.01,271.85 -9.1,35.8 -14.47,72.48 -25.62,107.71 -8.78,27.98 -22.53,53.61 -32.46,80.45 -11.79,30.75 -19.76,63.86 -33.02,92.08 -2.36,10.83 -4.88,21.64 -7.57,32.46 -6.91,24.65 -15.37,51.98 -17.16,74.52 -2.36,22.77 -2.36,45.79 -5.78,68.49 -3.49,20.99 -8.46,58.89 -8.94,87.94 -0.25,17.49 -0.74,34.97 0.97,52.46 1.46,15.62 4.96,31.08 3.01,49.14 -2.85,25.46 -13.99,48.97 -21.96,72.97 -9.85,33.67 -16.36,73.78 -20.67,104.61 4.56,-1.55 9.2,-3.09 13.67,-4.8 11.79,-4.07 21.72,-9.76 34.33,-12.04 16.1,-0.65 30.67,-1.63 44.17,3.82 4.88,2.2 9.27,5.21 13.83,8.05 5.53,3.18 11.87,5.13 16.76,9.28 9.03,8.05 14.15,17.57 21.23,26.19 10.16,13.42 18.55,28.07 27.49,42.39 26.36,38.07 54.83,73.61 82,111.77 25.14,33.84 50.11,71.99 64.1,110.06 0.57,1.54 1.39,3.41 2.28,5.37 2.28,2.19 6.83,3.82 9.36,6.34 9.02,7.32 9.92,16.52 10.08,26.36 0,12.2 -0.97,24.73 -0.81,35.14 0.24,11.55 -0.41,24.57 -4.07,36.2 -2.76,6.18 -8.22,10.33 -12.28,15.54 -0.9,0.97 -4.31,5.93 -6.02,6.91 -4.07,2.2 -6.35,2.93 -8.3,3.91 0,0.57 -0.16,1.05 -0.49,1.62 -1.05,1.87 -2.11,3.66 -3.33,5.45 -7.16,12.12 -13.1,22.7 -23.75,31.81 -24.57,20.99 -46.13,45.23 -68.99,68 -22.94,22.38 -47.1,43.61 -70.28,65.65 -17.57,15.95 -34.25,32.79 -52.06,48.24 -4.8,4.31 -12.21,7 -18.23,10.98 -4.55,3.09 -5.93,4.56 -10.25,8.79 -1.62,1.3 -2.92,3.33 -4.71,4.47 -0.09,1.14 -0.25,2.2 -0.41,3.5 -2.03,6.67 -8.05,10.9 -13.34,14.89 -7.57,5.61 -13.18,10.49 -23.18,10.98 -5.94,0.57 -8.63,-0.9 -12.94,-0.73 h -0.08 c -0.24,0.08 -0.41,0.08 -0.65,0.16 -2.6,2.36 -3.09,3.5 -6.92,4.96 -12.36,3.26 -22.45,2.85 -36.44,7.97 -24.57,7.73 -48.56,17.17 -72.72,26.12 -10.5,3.74 -19.44,6.26 -28.64,11.63 -7.89,4.72 -19.52,13.75 -30.83,15.05 -0.16,0.49 -0.24,1.05 -0.4,1.46 -2.2,4.8 -4.64,5.53 -6.51,9.36 -3.58,7.56 -7.32,17.65 -10.09,27.09 -1.22,3.74 0.73,8.86 -1.79,13.34 -1.71,2.27 -0.73,1.71 -3.91,4.31 -1.7,0.81 -3.74,2.36 -5.61,3.5 -0.16,26.84 2.04,53.6 3.91,80.37 2.52,-2.77 1.38,-1.63 4.23,-3.34 6.91,-2.68 13.34,1.95 16.03,5.37 2.6,3.33 2.92,7.97 4.39,10.49 7.56,14.08 8.95,32.22 10.49,46.62 1.79,13.34 1.95,22.94 -2.11,28.96 -2.2,3.57 -5.46,7.23 -9.77,7.64 -3.66,0.41 -8.62,-2.68 -8.86,-2.6 l -0.09,0.08 c -0.08,0 0,-0.08 -0.16,0 -1.7,0.57 -6.02,3.91 -9.92,5.04 0.08,2.61 0.24,5.13 0.32,7.73 0.49,1.39 0.74,2.85 0.98,4.56 1.46,3.5 4.64,5.77 5.78,11.63 1.38,8.79 1.14,17.82 2.52,26.6 0,0.49 0.08,0.89 0.16,1.38 1.22,-0.24 2.52,0.17 3.41,1.14 2.2,2.69 3.83,4.96 4.16,5.45 2.84,3.42 6.42,6.27 9.35,9.68 9.03,11.96 10.41,25.79 16.51,38.15 3.42,5.94 7.89,16.84 8.3,19.94 2.44,13.66 -6.91,25.94 -17.24,43.52 -12.29,18.38 -25.14,39.12 -41.9,51.08 -32.7,13.59 -70.61,23.18 -104.45,26.36 -13.09,0.4 -26.6,0.24 -39.29,-3.58 -10.17,-3.5 -20.58,-5.7 -30.42,-10.01 -6.75,-2.85 -13.91,-6.75 -19.36,-8.87 -5.86,-2.03 -12.04,-2.76 -17.9,-4.63 -14.89,-4.31 -25.95,-12.45 -35.55,-25.46 -16.43,-18.79 -33.51,-40.19 -47.26,-58.41 -3.25,-4.72 -8.62,-8.54 -10.66,-13.91 0,-0.25 0.17,-0.41 0.25,-0.57 -3.34,-4.96 -5.29,-10.9 -5.7,-16.84 1.63,-19.12 4.39,-41.57 25.79,-49.7 2.2,-0.81 5.37,-2.61 8.05,-4.96 9.44,-9.12 18.96,-18.79 30.18,-21.72 4.48,-1.63 10.34,-7.08 12.04,-6.76 0.25,-0.08 2.52,-1.7 3.58,-2.52 0.82,-1.22 1.63,-1.79 3.17,-2.19 0.09,0 0.17,-0.08 0.25,-0.17 h 0.24 c 0.08,0 0.08,0 0.08,0 h 0.57 c 2.44,0 4.64,1.39 6.35,3.26 0.08,-0.98 0.08,-1.95 0.16,-2.93 0.08,-0.33 0.33,-0.41 0.57,-0.65 -0.08,-1.39 0,-2.69 0.08,-3.74 1.06,-3.42 2.6,-4.64 3.5,-6.27 0,-0.16 -0.16,-0.32 -0.08,-0.49 0.57,-3.49 -0.33,-8.29 -0.9,-10.57 -1.38,-2.52 -1.87,-5.45 -1.87,-8.38 0,-2.19 -0.08,-4.15 -0.24,-5.86 -0.41,0.25 -0.81,0.57 -1.14,0.98 -4.39,3.5 -10.33,3.66 -14.16,0.98 -1.3,-0.57 -2.19,-2.69 -2.52,-3.42 0,0 0,-0.08 -0.08,-0.08 0,-0.08 0,-0.16 0,-0.16 -4.39,-7.9 0.08,-17.57 -0.57,-26.2 0.41,-8.3 0,-15.62 2.77,-22.69 0.89,-2.85 4.55,-7.41 5.53,-8.54 2.85,-3.67 5.04,-8.71 6.35,-11.96 1.86,-5.05 4.55,-13.59 6.91,-16.44 2.28,-3.25 3.74,-5.12 8.38,-5.44 1.22,0 2.76,0.48 4.23,1.3 0.32,-4.4 0.98,-8.71 2.68,-12.69 1.22,-3.34 1.87,-5.21 3.75,-9.11 0.81,-2.2 1.62,-5.13 2.84,-7.41 2.04,-3.58 5.45,-6.75 7.16,-9.11 0.24,-0.41 0.49,-0.81 0.73,-1.22 1.63,-14.64 2.61,-29.69 3.58,-44.74 -7.81,-1.79 -15.46,-4.64 -22.12,-9.11 -2.36,-1.63 -4.64,-3.66 -5.62,-6.43 -2.44,-11.95 -0.73,-24.32 -1.54,-36.44 0.16,-3.91 -1.47,-6.83 -0.98,-10.66 0.73,-2.03 1.95,-4.39 3.66,-5.85 -0.65,-0.08 -1.22,-0.17 -1.55,-0.17 -7.56,-0.65 -11.79,-5.93 -17.89,-10.33 -48.73,-35.55 -106.81,-69.39 -160.74,-97.37 -6.76,-2.28 -11.23,-0.32 -18.06,-4.39 -4.48,-2.77 -6.67,-6.67 -8.13,-10.98 -0.9,-0.08 -1.88,-0.49 -2.36,-1.39 -8.71,-9.92 -17.98,-20.74 -25.06,-35.14 -3.09,-11.71 -3.82,-23.35 -9.03,-34.73 -19.85,-55.64 -46.53,-108.44 -71.5,-162.13 -0.57,-0.57 -1.06,-1.14 -1.47,-1.54 -3.17,-3.58 -6.26,-7.16 -9.43,-10.66 -5.29,-5.86 -10.99,-7.81 -18.14,-15.95 -11.23,-14.56 -22.05,-47.42 -34.41,-61 -4.72,-5.37 -14.4,-13.51 -15.78,-16.52 -2.69,-4.23 -3.18,-6.99 -4.24,-10 -6.1,-16.11 -10.57,-33.76 -10.98,-50.52 -0.32,-3.82 -0.65,-7.81 0.17,-11.55 1.46,-5.29 5.04,-9.6 7.89,-14.15 2.52,-2.93 4.96,-10.5 8.95,-10.83 1.46,-10.33 3.41,-20.5 7.81,-30.58 22.28,-57.19 61.08,-105.92 94.85,-156.67 14.07,-20.34 22.85,-43.28 41.81,-59.47 9.02,-8.78 17.24,-20.42 30.26,-23.1 15.05,-2.93 30.34,9.19 41.49,13.99 1.95,0.49 3.98,0.57 6.1,0.49 -2.28,-10.09 -3.01,-21.56 -4.07,-33.03 -5.45,-50.03 -6.59,-100.46 -9.92,-150.65 -9.69,-128.21 -11.4,-256.82 -22.7,-384.94 -0.98,-60.68 -4.07,-121.2 -10.66,-181.56 -0.16,-4.07 -0.98,-5.86 -0.73,-8.38 -1.3,-2.36 -1.3,-5.86 1.71,-10.17 6.18,-6.02 14.72,-9.19 23.02,-11.23 20.17,-4.31 37.58,-4.23 57.59,-7.32 4.48,-42.38 10.01,-84.27 16.44,-125.52 1.87,-26.92 -2.61,-47.91 -1.47,-73.78 6.43,-42.79 15.21,-81.59 18.14,-123.73 5.45,-49.29 4.88,-99.08 9.27,-148.37 -3.25,-7.24 -7.89,-15.54 -9.68,-19.36 -3.57,-7.89 -3.57,-16.92 -4.88,-22.29 -1.54,-9.85 -6.42,-19.2 -6.34,-29.21 0.81,-6.67 2.36,-9.19 8.62,-13.5 1.55,-1.14 3.25,-2.44 5.13,-3.82 -1.71,-1.63 -3.5,-3.26 -5.62,-5.05 -6.18,-4.72 -18.14,-11.79 -25.05,-19.11 -5.53,-5.61 -10.01,-12.45 -16.19,-17.49 -1.71,-1.39 -9.36,-5.13 -12.2,-6.1 -19.28,-7.89 -41.08,-12.86 -61.18,-22.29 -7.89,-3.58 -12.61,-9.441 -15.61,-17.491 -0.65,-1.789 -3.26,-6.27 -4.23,-9.68 -4.88,-0.57 -9.44,-1.789 -12.29,-7.238 -3.58,-6.59 -3.58,-15.7 -4.47,-18.059 -0.25,-2.203 -0.89,-9.191 2.28,-13.672 1.54,-1.379 3.49,-2.031 5.45,-2.519 0.65,-0.411 1.46,-0.653 2.52,-0.731 80.7,-3.168 161.39,-0.488 242.09,0.731 26.76,-0.411 53.44,0.16 80.21,1.14 12.28,0.078 20.25,-0.332 29.04,2.278 4.63,1.382 9.84,2.761 12.36,7.32 1.71,3.012 3.99,8.543 2.2,11.473 v 2.277 c -1.14,8.703 2.27,17.973 -1.87,26.191 -1.14,1.95 -2.2,3.25 -3.34,4.231 0.9,1.461 1.63,3.008 1.95,4.64 1.14,4.629 0.41,8.209 0.57,12.279 0.33,4.64 3.66,10.82 4.64,16.27 1.3,6.34 2.11,14.8 4.39,19.28 3.82,6.99 9.76,18.14 12.29,28.14 2.11,6.68 1.54,13.59 4.22,20.1 2.28,7.89 4.24,17.08 3.02,26.19 -1.31,6.43 -4.72,12.12 -8.06,17.65 -2.6,4.07 -5.45,7.97 -8.3,11.96 -0.65,2.6 -1.05,5.12 -1.21,7.24 -1.39,19.28 -0.82,35.55 -3.59,56.86 -1.95,21.24 -13.58,36.69 -12.36,58.49 -0.25,81.75 -2.11,163.67 3.5,245.34 1.71,15.62 9.68,49.22 13.09,72.65 1.22,9.76 2.12,19.52 2.93,29.36 33.27,1.22 66.55,3.58 99.57,7.41 35.06,4.79 69.88,11.22 104.54,18.62 11.38,-43.84 19.52,-88.5 32.29,-131.94 29.45,-90.7 66.05,-178.97 97.94,-268.69 4.47,-16.03 14.97,-26.76 20.99,-45.39 3.25,-8.95 3.33,-14.32 3.25,-24.33 0.73,-20.66 -0.33,-41.56 3.58,-61.9 2.52,-14.72 13.91,-24.97 23.43,-35.47 6.34,-6.75 14.88,-18.06 16.76,-21.55 0.89,-1.63 1.87,-3.42 2.6,-4.56 0.41,-2.36 1.79,-3.17 2.03,-5.21 2.6,-6.42 5.04,-6.83 6.67,-13.17 2.69,-9.93 1.87,-14.89 6.43,-22.21 2.6,-4.39 6.91,-7.16 11.22,-9.6 0.57,-0.24 1.14,-0.57 1.72,-0.98 -0.25,-0.48 -0.42,-0.81 -0.5,-1.38 -0.65,-2.361 -0.65,-5.041 -0.97,-7.478"
         style="fill:#39788b;fill-opacity:1;fill-rule:nonzero;stroke:none"
         id="path30" />
      <path
         d="m 1729.58,2675.51 c -6.97,-8.03 -5.35,-7.78 -9.81,-19.37 -3.65,-11.27 -7.38,-18.4 -11.1,-30.24 -1.54,-4.86 -8.03,-16.21 -11.51,-24.4 -0.65,-2.1 -1.62,-4.62 -1.38,-6.89 l -0.08,0.09 c 0,-1.22 0.08,-2.36 0.32,-3.57 1.38,-5.84 2.35,-6.73 4.38,-11.43 1.54,-2.67 2.75,-5.75 4.3,-8.51 -5.43,-5.59 -11.76,-11.75 -14.84,-14.83 -2.76,-3.65 -3.24,-5.11 -7.29,-7.54 -0.41,-0.08 -1.14,-0.24 -1.38,-0.41 0.08,0.08 0.16,0.08 0,0.08 -0.49,-0.16 -1.06,-0.32 -1.06,-0.32 h -0.24 c -10.78,-1.54 -31.85,0.89 -43.93,2.27 -6.65,1.22 -11.91,1.7 -17.67,-0.89 0.33,0.97 0.65,2.03 0.81,3.32 0.16,1.38 -0.16,2.76 -0.56,4.14 -0.25,0.56 -0.41,0.89 -0.57,1.21 0.08,-0.08 0.16,-0.16 0.16,-0.16 -0.89,3.32 -2.11,4.62 -2.6,6.65 0.09,0.32 0.09,0.73 0.09,0.97 0,0.16 0,0.32 0.08,0.49 0.16,0.72 0.49,1.46 0.73,2.1 0,0.08 0.08,0.17 0.08,0.25 0.08,0.08 0.08,0.08 0.08,0.16 3.73,9.16 2.76,19.29 2.92,28.93 0.08,1.62 0.24,3.33 -0.25,4.95 -0.48,1.62 -1.94,4.94 -2.35,5.75 -5.02,10.95 -9.8,23.43 -14.26,36.48 0.32,1.05 0.73,2.02 1.21,2.83 2.19,10.14 5.27,15.65 8.76,24.89 0.4,1.3 1.54,4.38 2.35,6 0.24,0.24 0.4,0.89 0.48,1.37 0,0.08 0,0.08 0,0.17 0.9,4.78 -0.56,9.64 -2.18,14.1 -0.25,1.05 -2.84,6.16 -3.49,7.3 -0.81,1.94 -0.89,4.7 -1.3,4.7 0.08,1.53 -0.32,3.48 -0.32,3.24 0,0.08 0,0.08 0,0.16 0,0.16 -0.08,0.49 -0.16,1.05 -0.16,2.76 -1.38,5.44 -1.87,8.11 0.41,1.86 6.81,19.37 9,27.4 1.95,9.72 1.3,19.61 1.38,29.42 -0.49,7.13 0.81,5.19 -0.08,12.88 -1.14,5.11 -3.33,6.57 -3.73,7.87 0,0.08 -0.08,0.16 -0.08,0.24 -0.33,5.67 3.24,7.38 7.21,13.13 2.27,3.65 3.89,7.46 5.27,11.1 1.22,-1.7 2.35,-3.4 3.49,-5.18 16.21,-25.7 32.01,-51.71 47.49,-74.81 2.03,-3.33 4.62,-6.41 8.03,-8.51 2.43,-1.71 8.59,-3.17 9.32,-3.65 5.84,-4.05 13.94,-11.68 20.42,-17.92 7.22,-7.21 14.19,-17.66 17.51,-18.96 1.06,-0.49 2.19,-0.97 3.41,-1.38 -1.63,-3.41 -1.46,-7.38 0.24,-10.7 -2.11,-1.38 -3.97,-2.75 -5.43,-4.13 z m -580.59,-137.47 c -5.11,0.89 -10.37,1.3 -15.48,0.41 -5.43,-1.06 -10.29,-3.65 -15.56,-5.19 -14.43,-4.38 -30.64,-9.73 -43.61,-10.46 -12.73,-0.81 -22.86,0.16 -31.29,2.76 -18.48,14.83 -38.82,35.18 -57.062,56.17 5.028,6.89 10.055,13.78 12.891,21.8 3.561,15.56 -4.941,21.56 -13.535,31.53 -15.321,15.48 -25.211,28.53 -37.207,46.45 -5.426,8.75 -11.344,16.13 -15.883,18.56 -7.133,3.4 -9.32,3.16 -14.188,6.32 2.192,3.4 4.379,6.81 6.485,10.21 1.457,2.59 3.566,5.03 3.488,8.19 -0.16,2.27 -0.973,4.29 -2.031,6.32 0.328,0.16 0.488,0.32 0.652,0.41 0.16,0.08 0.324,0.16 0.488,0.16 1.457,-0.25 6.157,2.83 7.293,3.56 h 0.082 c 5.512,2.84 11.836,9.32 15.477,13.3 14.188,9.08 45.23,36.8 62.9,57.55 8.68,13.86 12.89,31.44 19.21,43.28 8.19,14.18 15.4,23.42 23.67,33.63 0.4,-3.16 0.81,-6.32 1.54,-9.48 5.02,-19.78 13.94,-37.2 17.35,-56.82 9.72,-50.41 28.28,-98.48 47.9,-145.73 3.32,-18.89 6.4,-37.13 8.99,-53.01 1.79,-12.08 0.73,-24.48 4.3,-36.23 3.32,-11.84 10.13,-22.45 18.89,-30.97 5.27,-4.94 8.91,-9.24 11.83,-15.96 -5.84,1.13 -11.75,2.19 -17.59,3.24 z m 770.09,116.07 c -0.08,1.46 -0.56,2.92 -1.13,4.3 -0.17,0.32 -0.33,0.64 -0.49,0.97 -0.32,0.48 -0.49,1.05 -0.81,1.54 -0.4,0.48 -0.89,1.21 -1.46,2.02 3.89,32.1 9.73,64.77 -3.64,95.24 -18.73,37.53 -52.2,65.25 -80.9,95.08 -16.04,16.13 -34.69,29.66 -44.9,49.52 -12.89,28.45 -32.83,47.5 -54.47,70.76 -21.88,25.37 -40.53,53.09 -61.28,80.16 -4.78,5.6 -7.37,13.3 -13.94,16.86 -1.54,0.41 -2.67,0.73 -3.57,0.9 -1.69,8.18 -7.86,14.66 -14.02,20.1 -9.56,7.94 -23.02,9.07 -31.28,14.1 -14.35,7.13 -29.1,17.75 -44.26,26.91 -27.8,17.59 -56.9,37.2 -82.35,56.33 -2.43,1.79 -4.05,3.49 -5.59,5.03 0.08,0.48 0.16,0.89 0.24,1.29 0.25,12.81 -3.89,25.62 -6,37.61 -1.7,5.27 -1.29,13.54 -3.73,18.08 -1.37,3.64 -5.02,5.43 -8.1,7.37 -0.81,0.41 -1.62,0.98 -2.43,1.54 -0.08,5.84 -0.16,11.76 -0.41,17.59 5.76,12.16 12.32,25.37 15.16,38.5 3.97,15.97 7.38,32.1 9,48.47 0,0.49 -0.08,1.06 -0.08,1.54 1.7,0.17 3.48,0.65 4.86,0.89 7.54,2.52 10.05,8.76 10.46,13.46 4.54,18.16 7.21,42.8 12.64,62.9 0.73,4.13 1.14,8.35 0,12.4 -3.16,10.54 -12.56,11.51 -16.45,8.67 -0.17,-0.08 -0.33,-0.16 -0.57,-0.24 0.24,7.05 0.49,14.18 0.81,20.5 -0.41,3.17 0.73,7.46 0.4,10.78 1.95,4.79 3.25,9.16 2.35,11.6 0,14.5 -2.75,30.96 -3.16,44.09 11.76,7.29 9.97,12.89 13.54,22.86 2.27,7.94 9.08,17.18 10.94,24.15 4.22,22.45 5.19,46.12 0.41,68.57 -1.38,7.46 -3.57,14.84 -5.03,22.29 -0.81,5.03 -2.76,9.81 -6.24,13.54 -5.76,6.32 -13.53,10.37 -20.51,15.15 -6.08,3.81 -11.42,9.08 -18.56,10.86 -6.48,1.87 -13.21,0 -19.21,-2.43 -0.08,0 -0.16,0 -0.16,0 -5.51,5.35 -8.43,8.11 -16.37,13.3 -12.32,7.94 -26.51,9.08 -42.39,9.24 -22.21,-0.24 -45.88,6.24 -66.47,-4.87 -5.51,-2.83 -9.72,-7.29 -13.37,-12.24 -3.65,0 -7.3,-0.4 -11.43,-2.02 -5.59,-3.08 -9.56,-6.97 -14.43,-11.84 -8.75,-8.51 -17.75,-16.77 -26.58,-25.28 -10.54,-9.73 -21.4,-18.57 -24.97,-30.56 -2.67,-8.43 -2.83,-13.38 -3.73,-21.32 -2.99,-2.35 -6.24,-5.43 -9.08,-10.78 -1.61,-2.43 -4.29,-8.91 -5.99,-13.45 -2.6,-6.33 -6.24,-12.16 -9.81,-18.08 -5.43,-8.43 -9.73,-13.21 -16.86,-20.91 -6.48,-6.73 -9.24,-8.19 -12.07,-16.29 -1.71,-5.03 0.48,-9.97 3.72,-12.16 3.41,-3.08 15.65,-10.54 21.48,-12.4 8.68,-4.05 16.7,-4.95 27.48,-8.03 6.16,-1.62 12.32,-4.62 18.81,-3.32 0.4,0.08 0.8,0.16 1.29,0.32 0.33,-17.83 3.32,-34.69 5.76,-50.9 v -0.08 c 0.32,-1.78 0.89,-3.4 1.78,-4.94 0.08,-0.08 0.08,-0.16 0.16,-0.25 0,-0.16 0.08,-0.32 0.24,-0.56 0.49,-1.06 2.44,-2.35 3.41,-2.92 0.08,-1.78 0.16,-3.65 0.24,-5.43 -0.24,0.16 -0.49,0.4 -0.65,0.48 -9.16,4.38 -16.53,-2.91 -19.04,-9.8 -3.57,-14.84 1.21,-30.4 3.48,-45.15 3.08,-14.91 7.3,-36.47 15.08,-45.55 2.59,-3.16 2.99,-3.65 6,-6 0.16,-0.08 0.24,-0.16 0.4,-0.32 0.08,-0.09 0.08,-0.09 0.16,-0.09 0.25,-0.16 0.41,-0.32 0.65,-0.48 0,0 0,0 0.08,-0.08 0.08,0 0.16,-0.08 0.24,-0.08 1.14,-0.49 2.19,-0.98 3.41,-1.14 2.27,-0.4 4.62,-0.08 6.81,0.57 -0.57,-10.05 -1.06,-20.1 -1.3,-30.23 0.73,-12.57 0.32,-23.59 -1.38,-35.42 -3.32,-3.25 -4.21,-3.73 -8.67,-8.84 -5.51,-7.62 -12.4,-24.07 -17.43,-35.42 -1.13,-2.92 -4.29,-9.08 -7.29,-15.48 -7.13,-2.11 -10.62,-4.22 -17.35,-5.43 -15.48,-1.46 -24.96,-9.08 -40.36,-17.51 -3.89,-2.19 -9.4,-1.13 -16.7,-2.43 -0.24,0 -0.4,-0.16 -0.57,-0.24 -1.13,0 -2.43,0 -4.13,-0.17 -18.32,-2.99 -56.98,-21.88 -81.62,-31.93 -15.56,-7.22 -34.13,-7.78 -48.23,-17.83 -5.27,-4.54 -10.94,-9.32 -14.35,-15.48 -6.97,0.97 -9.15,1.05 -16.853,-1.79 -7.863,-5.75 -14.832,-15.97 -19.371,-22.37 -18.641,-37.2 -47.578,-65.98 -72.383,-97.18 -8.429,-10.94 -18.32,-28.61 -24.152,-36.39 -1.137,-1.79 -4.539,-4.46 -3.731,-4.46 -3,-1.38 -4.457,-3.49 -8.996,-6.32 -7.539,-6.09 -27.394,-24.97 -35.664,-37.53 -16.129,-21.65 -41.254,-50.9 -63.062,-72.63 -19.207,-20.18 -40.766,-38.58 -57.465,-60.95 -1.375,-3.32 -3.648,-6.56 -4.945,-9.97 -0.731,-0.81 -1.297,-1.62 -2.024,-2.35 -7.781,-9.08 -10.617,-20.83 -14.105,-31.93 -3.649,-12.81 -8.914,-25.54 -10.133,-38.83 -0.238,-9 3.566,-16.78 6.809,-25.94 4.46,-11.59 8.835,-24.96 14.507,-36.39 2.438,-4.62 5.758,-11.1 5.84,-12.97 0.567,-4.21 -0.164,-8.67 2.11,-12.4 1.699,-3.08 4.941,-4.78 8.019,-6.4 0.649,-0.33 1.379,-0.73 2.027,-1.06 -9.242,-15.48 -2.351,-18.64 7.215,-29.9 20.262,-27.4 39.149,-65.98 52.93,-95.41 5.996,-11.75 6.723,-20.02 14.508,-30.07 6.64,-7.21 15.722,-10.29 21.719,-8.59 3.164,0.41 5.839,2.43 10.781,4.87 2.351,0.97 12,3.72 14.429,3.97 16.696,4.78 42.879,13.45 65.168,21.4 8.832,-5.44 17.911,-10.62 27.313,-15.08 36.641,-16.7 77.249,-31.61 107.149,-55.85 8.92,-7.53 23.75,-9.72 36.96,-13.37 10.95,-3 21.89,-6.08 32.83,-9.16 -5.99,-51.79 -12.08,-109.34 -20.02,-164.14 -7.86,-66.05 -11.34,-106.9 -20.91,-162.91 -12.48,-66.06 -27.31,-131.63 -40.61,-197.53 -2.75,-15.97 -7.7,-31.94 -8.59,-48.07 0.24,-0.64 0.73,-1.05 1.3,-1.37 -0.65,-1.78 -1.3,-3.65 -1.95,-5.52 -0.24,-0.8 -0.08,-1.7 0.33,-2.43 0.08,-0.08 0.24,-0.16 0.32,-0.24 0,-0.97 0.32,-1.86 1.14,-2.67 4.62,-4.62 9.72,-8.68 14.99,-12.49 -2.43,-13.37 -4.3,-26.74 -6.48,-41.66 -6.81,-34.93 -14.51,-69.62 -19.38,-104.8 -12.72,-81.05 -27.392,-160.33 -32.903,-237.08 -1.051,-11.27 -3.324,-23.91 -7.535,-40.53 -4.379,-13.86 -7.461,-28.21 -5.758,-42.8 4.293,-32.74 9,-76.75 2.109,-109.99 -2.676,-12.64 -2.031,-26.91 -7.781,-35.17 -1.141,-1.06 -14.027,-12.65 -17.676,-19.05 -4.293,-7.7 -5.996,-12.32 -7.941,-22.7 -0.485,-0.73 -2.106,-5.27 -2.676,-6.72 -0.078,-0.33 -0.078,-0.41 -0.078,-0.41 -0.16,-0.32 -0.324,-0.73 -0.488,-1.05 -2.024,-4.22 -4.055,-8.84 -2.754,-13.54 1.781,-6.56 6.886,-11.43 11.265,-16.37 2.434,-2.19 3.406,-5.51 5.27,-7.86 -0.242,-0.49 -0.328,-0.98 -0.328,-1.54 1.464,-6.65 -2.836,-11.03 -4.453,-21.97 0.16,-3.08 0.972,-6.32 2.671,-9 0.407,-1.05 4.379,-5.51 4.864,-5.91 0,-0.08 0.082,-0.08 0.082,-0.16 2.836,-4.22 1.621,-9.73 3.808,-14.92 -8.508,-8.83 -20.425,-19.37 -26.828,-28.29 -6.484,-8.91 -11.59,-23.661 -11.426,-32.989 -5.675,-2.352 -11.429,-5.352 -14.754,-12.242 -2.593,-6.879 -2.593,-14.418 -3,-21.641 0.329,-4.289 -1.296,-9.476 1.219,-13.207 1.457,-1.461 3.727,-1.461 5.348,-0.32 1.863,-2.27 4.617,-3.731 9.238,-5.192 7.375,-1.379 23.184,-1.949 26.992,-2.668 44.418,-6.41 89.973,-9.16 134.223,0.239 12.49,2.832 26.99,4.05 35.02,15.402 11.99,9.969 33.72,12.238 44.34,22.047 4.86,5.34 10.77,26.34 12.64,37.359 2.02,4.382 0.89,7.862 -3.48,13.622 -3.25,3.16 -4.22,4.21 -4.38,4.37 -0.08,0.17 -0.08,0.17 -0.16,0.25 0.08,0.32 0.24,0.73 0.32,1.05 1.38,3 3.16,5.84 3.65,9.08 0.89,5.67 0.16,11.51 -0.82,17.1 -0.08,1.54 -1.37,10.62 -4.21,16.94 -2.59,7.38 -0.16,10.22 -0.08,19.78 -0.08,0.89 -0.24,1.7 -0.33,2.51 0.9,1.71 1.79,2.6 3.25,3.97 2.19,2.6 4.54,5.27 6.24,8.27 -0.16,-0.4 -0.08,-0.4 0.57,0.57 0.48,0.89 0.89,1.62 1.05,2.11 2.84,3.56 4.46,8.43 4.94,11.18 1.87,11.51 9.97,22.37 16.62,35.58 3.08,7.46 3.24,14.19 -0.65,23.43 0,0 -0.08,0.16 -0.24,0.57 0,0.08 0,0.08 0,0.16 0,0 0,0 -0.08,0 -0.08,0.16 -0.08,0.32 -0.24,0.57 -0.17,0.4 -0.41,0.81 -0.73,1.21 0,0.08 0,0.16 -0.09,0.24 -0.08,0.09 -0.08,0.17 -0.08,0.17 -0.24,0.48 -0.57,0.81 -0.89,1.21 -0.32,0.49 -0.65,0.81 -0.97,1.14 -0.33,0.56 -0.73,1.13 -1.06,1.54 -2.1,5.35 -2.35,9.16 -3.07,15.32 -2.84,15.64 -6.81,31.12 -9.33,46.85 -0.08,0.64 -0.24,1.29 -0.32,1.94 v 0.08 c 0.57,7.78 1.3,15.4 3.24,23.02 4.7,15.97 12.89,30.56 19.29,46.77 16.05,39.72 32.91,85.75 46.12,119.63 6.4,22.13 9.4,59.5 14.92,86.81 3.89,25.53 11.67,50.26 16.69,75.55 6.25,32.58 8.92,65.81 16.38,98.23 2.35,10.3 5.1,20.51 8.02,30.72 42.23,-3 85.43,-4.62 128.63,-3.97 0,-1.86 0,-3.81 0.08,-5.67 4.22,-25.13 11.35,-53.42 11.92,-81.46 1.95,-36.48 0.57,-79.92 2.92,-111.77 2.35,-16.78 10.29,-45.23 13.7,-66.63 2.83,-18.4 5.26,-47.74 6.56,-72.79 0.89,-30.31 -0.24,-60.63 -1.62,-90.94 -1.38,-19.21 -5.19,-29.18 -1.79,-51.79 3.98,-19.86 12.57,-26.27 16.13,-46.04 1.55,-7.14 3.17,-14.35 4.62,-21.56 -0.4,-7.38 -0.48,-15.24 -0.32,-20.67 0.32,-7.05 0.32,-8.75 2.68,-15.64 0.81,-1.46 0.65,-2.11 1.62,-3 0.08,-0.09 0.08,-0.09 0.16,-0.17 l 0.08,-0.08 c 0,-0.08 0.08,-0.16 0.24,-0.32 0.08,-0.08 0.08,-0.24 0.16,-0.33 0.09,-0.08 0.17,-0.16 0.25,-0.32 2.59,-6 3.81,-10.86 3.81,-15.8 0.4,-9.81 -1.22,-17.43 -7.78,-24.89 -3.81,-4.54 -9.81,-8.43 -10.54,-14.59 0.16,-0.65 0.4,-1.3 0.57,-1.94 -0.33,-0.25 -0.73,-0.49 -0.97,-0.9 -2.76,-4.53 -2.44,-10.21 -2.03,-13.13 0.4,-6.56 0.89,-15.64 1.78,-20.02 0.65,-3.56 0.16,-3.64 1.13,-7.21 0.17,-0.57 0.66,-1.7 0.82,-1.95 0,-0.08 0.08,-0.24 0.08,-0.32 3.24,-8.27 17.02,-14.99 26.1,-20.67 8.67,-5.1 17.34,-11.101 27.15,-13.62 0.65,-0.16 1.21,-0.16 1.87,-0.238 1.29,-0.243 2.59,-0.571 3.88,-0.973 32.1,-6.969 56.82,-24.559 89.81,-33.231 65.58,-16.207 134.47,-14.839 201.18,-7.699 19.21,1.86 38.5,3.321 57.63,5.43 4.37,0.812 8.67,1.859 12.48,4.211 2.51,1.379 5.03,3.808 6.08,6.57 0.33,0.399 0.65,0.891 0.73,1.461 1.62,6.809 0.81,9.879 0.32,15.719 -0.08,1.051 -0.32,2.59 -0.64,4.219 0,3.16 -0.41,6.32 -1.63,9.722 -0.97,2.188 -2.43,4.139 -3.97,5.919 -0.08,0.24 0.08,0.49 0,0.73 -2.75,17.42 -16.86,29.75 -32.5,36.15 -18.72,8.91 -40.53,15.56 -59.66,25.53 -11.67,5.92 -19.37,11.19 -24.96,17.99 -9.89,9.08 -18.81,15.16 -29.91,25.21 -8.59,8.03 -22.45,14.84 -28.29,20.02 -7.37,6.08 -14.59,13.38 -21.31,21 0.32,0.24 0.64,0.48 0.97,0.73 6.16,5.26 12.56,14.34 9.73,24.64 -3.73,10.13 -7.22,13.53 -6.98,21.88 -0.97,17.1 10.14,43.77 9.25,59.41 -1.63,16.46 -12.33,23.83 -18,37.21 -8.83,24.39 -13.29,48.3 -19.37,73.84 -3.08,9.24 -4.13,18.32 -4.13,27.64 0.08,-0.09 0.08,-0.09 0.08,-0.09 3.16,-0.89 2.35,3.65 2.91,5.6 4.95,37.93 6.73,78.62 9.32,117.61 2.19,28.36 6.25,56.57 7.46,85.02 2.92,48.47 -2.43,97.02 -0.16,145.57 0.08,2.27 0.24,4.38 0.32,6.49 17.35,6.24 34.29,13.7 49.85,23.5 2.51,2.11 6.41,3.9 6.57,7.54 0,0.41 -0.08,0.73 -0.08,1.06 1.21,1.53 2.19,3.32 2.83,4.86 2.52,9.81 1.14,15.72 0.08,27.96 -3.48,23.99 -7.37,47.83 -11.26,71.73 -5.67,34.21 -9.89,68.66 -16.86,102.7 -8.19,38.74 -16.45,76.35 -19.46,113.07 -4.29,61.11 -13.86,121.58 -24.07,181.88 -4.37,26.75 -11.99,53.09 -14.75,79.92 0.57,0.65 0.89,1.46 0.89,2.52 -1.62,10.53 0.73,10.86 4.87,20.75 4.29,13.05 22.12,36.71 33.63,44.17 3.73,3.24 8.03,1.86 12.4,1.7 8.43,0.41 14.92,1.95 21.56,4.95 3.25,1.46 10.38,9.16 13.14,10.78 14.66,12.96 27.23,27.88 40.6,42.23 6.4,-0.25 13.21,-0.25 19.78,0 21.72,0.4 45.63,2.91 62.9,5.26 10.86,1.46 21.56,3.98 31.45,8.68 5.83,2.75 11.83,6.24 14.99,12.15 0.41,0.57 0.65,1.3 0.81,1.95 0,0.24 0.08,0.49 0.08,0.65 0.49,3 0.41,2.59 0.16,5.11 v 0.08 c -0.08,1.05 -0.24,2.1 -0.08,3.24 0.08,17.34 3.41,32.99 4.06,53.25 1.13,18.72 1.78,34.37 3.56,50.9 -0.08,5.35 0.08,6 -0.81,12.57 0.08,1.21 0.08,2.51 0,3.32"
         style="fill:#39788b;fill-opacity:1;fill-rule:nonzero;stroke:none"
         id="path32" />
      <path
         d="m 2789.94,826.43 c 7.36,-3.098 15.65,-7.61 24.52,-10.379 9.62,-2.84 19.66,-4.012 29.62,-5.02 38.15,-3.59 83.17,-3.179 116.72,1.848 6.78,1.582 16.23,-0.418 24.35,5.769 6.86,7.454 8.7,20.254 6.02,28.364 -1.17,5.437 0,6.949 -7.61,11.797 -0.5,0.332 -1.09,0.589 -1.59,0.75 -0.34,4.363 -0.75,8.621 -1.26,12.14 -0.08,0.75 -0.16,1.09 -0.25,1.25 0,1.012 -0.16,2.012 -0.5,2.93 -2.26,7.363 -7.44,10.961 -14.89,16.652 -17.07,8.699 -31.8,17.399 -43.18,27.438 -8.2,6.371 -18.91,15.07 -26.35,24.851 -2.85,3.442 -6.28,8.289 -9.29,12.469 -1.25,3.52 -1.84,6.359 -1.42,9.043 0.17,1.668 1.09,2.09 1.75,4.348 3.77,3.679 2.26,1.59 6.28,5.019 1.17,0.75 3.93,4.27 3.6,4.27 0.92,1 0.41,1.09 1.34,3.011 -0.09,-0.082 -0.17,-0.171 -0.26,-0.332 1.18,3.93 -0.58,8.364 -1.25,12.383 -1.59,5.519 -1.09,6.859 -3.01,10.369 -1.43,2.09 -3.35,3.69 -5.69,4.61 0,0.08 -0.09,0.08 -0.09,0.08 0,0 0,0 -0.08,0 -0.08,0.08 -0.25,0.17 -0.33,0.17 -0.09,0 -0.09,0.08 -0.17,0.08 0,0 -0.08,0 -0.08,0.09 -0.09,0 -0.09,0 -0.17,0.08 -0.34,0.17 -0.67,0.42 -0.84,0.5 0,0.08 0,0.08 -0.08,0.08 -0.67,0.93 -0.67,1.01 -1.26,2.68 0.09,0.25 0.09,0.84 0.09,1.51 v 1.75 c 0.08,0.34 0.16,0.92 0.16,1.26 0,0.08 0,0.08 0,0.17 0.09,0.75 -0.25,3.34 -0.33,3.93 -2.18,11.96 2.01,18.58 6.36,23.85 7.95,10.54 12.47,16.73 19.08,28.95 1.17,2.17 1.92,4.6 2.5,7.02 -0.08,-0.16 -0.08,-0.33 -0.16,-0.41 0.08,0.75 1.17,5.02 0.75,6.52 -0.17,2.26 -1.09,4.27 -2.09,6.28 -0.17,0.25 -0.25,0.25 -0.34,0.42 -0.5,0.92 -1.17,1.84 -1.84,2.59 -0.25,0.25 -0.58,0.5 -0.83,0.75 -0.09,0.09 -0.09,0.17 -0.25,0.34 -0.67,0.67 -1.43,1.17 -2.18,1.67 -0.17,1.34 -0.75,2.59 -2.09,3.26 -3.27,2.26 -2.93,1.93 -7.11,5.28 0,0.33 -7.53,6.69 -11.05,8.11 -9.54,4.27 -11.55,4.27 -12.88,4.94 -0.59,0.33 -1.17,0.67 -1.76,1.09 -0.08,0.08 -0.17,0.16 -0.25,0.16 0,0.17 -0.09,0.25 -0.09,0.42 0,0.09 0,0.09 0,0.25 0.09,0.34 0.09,0.51 0.09,0.67 0,0.09 0,0.09 0.08,0.17 0.09,0.42 0.17,0.59 0.17,0.59 0.08,0.25 0.17,0.5 0.25,0.75 3.01,8.28 3.93,15.73 6.36,20.33 0.08,0.09 0.08,0.17 0.17,0.25 1.17,0.25 2.34,1.01 3.17,2.51 10.88,19.41 23.27,43.01 11.38,67.19 -0.33,1.42 -1.33,4.1 -1.84,5.44 -4.09,9.54 -9.2,32.05 -9.29,38.65 0.34,5.03 -0.25,9.13 -2.76,16.07 -3.34,10.29 -11.37,22.59 -15.97,36.73 -5.03,15.57 -4.61,25.86 -6.37,42.84 -3.01,20 -4.18,58.24 -6.44,86.35 -3.09,32.05 -7.94,57.9 -11.21,87.86 -1.93,17.07 -3.51,34.13 -4.94,51.2 0.25,0.42 0.42,0.84 0.42,1.43 -0.58,3.76 -1,7.53 -1.5,11.29 -0.67,7.95 -1.18,15.9 -1.76,23.85 -1.26,32.55 -3.26,65.1 -3.51,97.73 6.86,0.75 13.72,1.92 20.49,3.93 4.19,1.25 10.21,-1.09 11.13,5.86 0.17,1.42 -0.42,2.51 -1.34,3.18 0,5.18 -1.42,11.71 -1.17,16.31 -6.02,122.92 -20.5,250.18 -32.88,376.78 -5.11,53.8 -7.95,107.68 -12.47,161.57 -4.68,40.99 -9.87,81.99 -13.97,123.16 -3.1,27.36 -6.03,56.48 -5.86,83.09 -0.58,15.9 2.01,28.36 0.92,45.26 -0.5,8.62 -1.84,17.16 -3.85,25.61 4.35,-0.92 8.45,-0.67 14.9,1.25 12.8,5.19 24.01,22.68 31.79,26.86 0.67,0.42 1.34,0.92 2.01,1.34 14.39,0.08 27.86,3.01 44.18,15.56 6.53,5.69 12.97,16.82 16.23,20.33 7.79,9.29 15.65,18.58 19.92,30.13 5.01,14.05 8.62,28.95 11.71,43.59 0,0.08 -0.08,0.17 -0.08,0.25 6.52,30.96 5.52,63.09 4.1,94.63 1.42,31.13 4.35,62.76 -5.44,92.96 -15.65,52.38 -34.39,96.98 -53.97,148.6 -4.52,12.47 -9.04,24.94 -13.89,37.24 -2.09,7.61 -4.52,15.23 -7.45,22.67 -2.93,7.28 -6.27,13.31 -8.61,19.58 -7.7,22.09 -12.81,51.88 -27.53,73.22 -6.03,10.2 -17.74,21.58 -23.77,28.19 -7.86,13.81 -18.99,19.75 -32.21,25.77 -0.33,0.09 -0.42,0.17 -0.58,0.25 -0.67,0.76 -1.43,1.59 -2.01,2.26 -4.44,4.86 -9.63,8.96 -15.23,12.39 -6.95,4.18 -14.06,8.62 -21.84,11.12 -8.95,2.6 -18.41,2.26 -27.7,1.59 -9.53,-1 -21.83,-1.75 -27.94,-0.33 -9.29,2.43 -19.92,4.69 -25.61,8.2 -4.09,2.84 -11.88,9.71 -20.41,10.46 -5.61,1.09 -14.23,-2.68 -16.07,-2.43 0.34,-0.5 -5.52,3.01 -10.96,3.27 -1,0 -6.27,-0.26 -7.7,-0.34 -0.25,0 -0.58,0.08 -0.83,0.17 -0.17,0 -0.42,0.08 -0.59,0.17 -0.08,0 -0.17,0.08 -0.25,0.08 0,0.08 -0.08,0.17 -0.17,0.17 0,0.08 0,0.16 -0.08,0.25 -0.84,1.59 -2.26,12.8 -4.94,17.74 -1.84,3.93 -4.76,7.36 -8.53,9.62 -3.27,1.92 -6.86,2.93 -10.54,3.51 -0.76,13.05 -3.35,31.04 -8.2,41.17 -0.09,0.17 -0.25,0.67 -0.25,0.58 -1.01,2.26 -2.93,4.61 -5.03,6.03 -2.42,1.51 -4.43,2.09 -6.77,2.26 2.42,5.69 4.68,11.04 6.61,15.14 4.52,10.88 9.62,19 12.97,29.54 3.18,11.46 2.26,23.51 2.17,35.22 -0.33,5.53 -0.5,11.05 -0.58,16.49 1.08,1.17 2.09,2.26 2.76,3.01 13.89,18.32 20.91,39.07 19.16,63.42 -0.59,6.2 -1.42,12.47 -4.77,17.82 -2.18,3.77 -5.19,6.78 -8.7,9.04 2.43,7.87 4.35,13.81 3.18,18.33 0,0.16 -0.09,0.5 -0.17,1.34 -2.34,10.29 -7.28,16.14 -9.54,25.35 -0.33,1.25 -0.42,3.34 -0.33,5.69 9.03,52.71 19.49,110.61 27.11,165.67 1.42,8.45 2.93,17.23 4.26,25.94 5.11,17.48 9.63,35.14 14.06,46.68 1.59,3.69 2.6,5.95 3.43,7.87 6.28,6.44 16.9,18.16 20.92,26.36 1.09,1.5 8.62,16.9 6.02,26.18 0.92,-1.08 -0.83,8.21 -1.75,11.22 -2.85,8.7 -10.38,20.75 -21.09,28.78 -2.76,2.68 -10.63,11.13 -13.3,15.4 -6.53,11.79 -6.95,17.48 -15.99,29.28 -9.62,13.22 -23.51,22.51 -36.72,31.88 -34.65,24.01 -79.24,29.7 -119.91,20.33 -23.34,-5.02 -35.64,-26.02 -53.3,-29.45 -6.69,0.17 -25.1,2.17 -39.24,-1.51 -10.29,-3.09 -13.39,-4.93 -20.25,-9.53 -12.8,-7.54 -19.32,-10.3 -31.29,-17.24 -15.9,-9.54 -34.31,-28.37 -44.01,-49.95 -5.86,-19.58 -4.52,-35.23 1,-52.72 3.1,-8.45 7.78,-17.23 16.07,-26.69 8.53,-8.03 10.71,-12.38 13.47,-16.9 8.62,-15.15 14.81,-34.39 20.41,-59.57 2.1,-10.21 4.02,-20.42 5.19,-29.96 1.76,-10.21 1.76,-24.43 2.51,-36.06 2.26,-21.59 4.44,-30.88 6.78,-49.7 0.84,-6.36 2.68,-18.49 3.76,-29.71 -0.67,-1.25 -1.42,-2.51 -2,-3.84 -6.19,-14.14 -13.47,-29.04 -5.19,-52.22 2.01,-4.85 2.34,-10.37 3.51,-15.56 -8.45,-4.6 -16.4,-16.82 -15.39,-27.86 2.17,-15.4 14.47,-49.7 26.52,-64.09 2.18,-3.52 3.85,-5.69 5.36,-7.62 1.59,-15.14 3.59,-27.44 5.27,-40.58 -0.92,-9.96 -1.68,-20.5 0.58,-30.12 1.26,-5.52 3.01,-10.71 5.19,-15.56 2.01,-5.94 4.69,-11.72 7.62,-17.24 -0.67,-0.5 -1.34,-1.09 -2.35,-1.92 -0.33,-0.17 -0.58,-0.42 -0.83,-0.59 v -0.08 h -0.09 c -0.41,-0.34 -0.83,-0.84 -1.17,-1.26 -0.08,-0.08 -0.08,0 -0.16,-0.08 -0.09,-0.25 -0.26,-0.42 -0.42,-0.59 -0.09,-0.08 -0.09,-0.08 -0.09,-0.17 -0.25,-0.25 -0.42,-0.41 -0.58,-0.66 0.08,0 0.16,0.08 0.25,0.16 -0.76,-1 -1.26,-1.76 -1.51,-2.68 -0.09,0 -0.17,-0.16 -0.34,-0.66 -1.17,-2.6 -1.17,-2.85 -2.25,-5.69 -1.26,-2.93 -1.59,-8.37 -1.59,-10.38 -1.43,-8.2 -2.85,-16.4 -3.77,-25.6 -2.59,0.08 -5.52,-0.17 -9.12,-1.76 -3.43,-1.84 -7.78,-6.11 -8.78,-10.38 -0.09,0.17 -0.26,-0.08 -0.42,-0.83 -0.67,-2.01 -1.17,-2.43 -1.17,-4.27 -0.17,-0.5 -0.51,-1.84 -0.67,-2.76 0,-0.17 0,-0.17 -0.09,-0.25 -0.16,-0.42 -0.33,-0.92 -0.5,-1.34 0,-0.17 -1.59,-3.68 -2.68,-5.27 -0.41,-0.5 -1.84,-1.67 -1.84,-1.84 -0.08,0 -0.08,-0.08 -0.16,-0.08 -0.04,0 -0.03,0 -0.04,0 0.01,0 0.02,0 0.03,0.01 -0.07,-0.09 0.11,0.12 -0.03,-0.01 -0.02,0 -0.05,0 -0.05,0 -0.42,-0.26 -0.58,-0.34 -0.67,-0.42 -0.75,-0.25 -0.83,-0.59 -2,-1.09 -1.68,-1.09 -10.3,-1.34 -16.66,-3.85 -4.43,-1.51 -8.03,-5.86 -10.37,-7.03 -8.12,-2.59 -22.01,-4.1 -29.45,-3.51 -10.04,3.09 -21.51,-0.51 -28.62,-10.8 -8.45,-0.08 -18.91,-1.75 -31.29,-2.42 -19.17,1 -21.51,-10.21 -35.31,-17.91 -0.5,-0.25 -1.18,-0.5 -1.59,-0.59 -0.09,-0.08 -0.17,-0.08 -0.34,-0.08 -1.92,-0.58 -10.79,0.67 -16.06,-0.25 -5.11,0.33 -22.09,-7.95 -28.2,-16.57 -10.12,-12.97 -19.25,-25.77 -23.93,-38.23 -0.25,-1.01 -0.42,-1.68 -0.59,-2.35 -4.51,-4.94 -9.78,-9.79 -13.21,-17.74 -2.94,-7.11 -2.02,-15.06 -2.43,-22.67 -1.17,-16.15 -5.11,-34.56 -8.87,-52.3 -13.31,-60.99 -30.2,-121.07 -40.83,-182.65 -3.1,-13.56 -5.19,-25.1 -4.1,-36.98 -1.26,-6.95 -1.59,-13.47 -2.68,-18.16 -2.26,-17.91 -4.1,-46.61 -5.94,-70.54 -0.67,-17.32 0.33,-34.72 -0.5,-52.04 -0.09,-11.04 -1.68,-22.43 1.67,-33.14 4.6,-10.79 6.53,-17.56 15.48,-27.02 2.51,-2.51 5.52,-2.01 7.7,-0.25 5.94,-4.1 13.3,-7.28 20.92,-8.87 22,-4.94 48.53,-14.14 74.63,-23.01 1.51,-2.93 3.18,-5.77 4.6,-8.79 7.37,-13.72 14.39,-28.11 26.03,-38.9 12.63,-11.3 15.89,-9.96 31.54,-15.57 3.85,-1.17 6.86,-2.25 9.62,-3.51 -1.51,-10.04 -3.93,-22.09 -6.53,-32.3 -4.85,-14.72 -11.37,-28.86 -14.05,-44.18 -4.86,-28.7 -4.77,-57.9 -6.95,-86.85 -4.26,-56.39 -9.79,-112.7 -15.39,-169.01 -10.8,-106.52 -24.02,-207.34 -35.4,-311.35 -4.85,-45.85 -8.53,-91.78 -10.62,-137.81 0.08,-20.49 -3.77,-41.75 0.67,-61.91 1.59,-4.69 5.6,-8.62 10.12,-10.63 0.5,-4.52 5.11,-8.53 9.96,-7.02 7.36,2.84 17.82,3.09 29.12,2.84 0.25,-3.77 0.58,-7.03 1,-10.04 -0.83,-48.2 -2.34,-96.39 -3.34,-144.59 -0.84,-63.09 -3.77,-132.62 -12.72,-189.51 -7.62,-56.23 -26.03,-110.95 -27.78,-168.02 -1.93,-26.69 9.7,-50.2 21.08,-69.19 6.36,-11.21 7.7,-17.74 14.64,-28.87 1.01,-0.75 2.01,-1.09 3.1,-1.09 0,-1 0.09,-2.17 0.09,-4.01 -0.09,-0.5 -0.17,-1.01 -0.34,-1.59 -0.17,-0.42 -0.34,-0.92 -0.5,-1.26 -1.59,-3.01 -3.18,-6.02 -4.19,-9.29 -25.6,-14.14 -22.09,-27.36 -15.56,-44.68 2.26,-9.12 2.6,-13.63 2.09,-32.13 0,-7.031 0.09,-13.55 0.34,-16.98 0.17,-1.262 0.25,-2.762 0.67,-4.102 -0.09,-0.25 -0.09,-0.589 0.08,-1.418 v -0.191 c 0,0.012 0,0.012 0,0.012 0,-0.012 0,-0.012 0,-0.02 v -0.14 c 0.01,-0.032 0.03,-0.051 0.04,-0.082 0.04,-0.239 0.04,-0.25 0.01,-0.028 0.16,-0.582 0.39,-1.011 0.62,-1.39 -4.35,-4.52 -8.2,-9.039 -10.46,-13.469 -0.23,-0.473 -0.92,-1.871 -1.23,-2.613 0,-0.008 -0.01,-0.008 -0.01,-0.008 0,-0.02 0,-0.02 -0.01,-0.039 -0.03,-0.051 -0.07,-0.153 -0.09,-0.192 -0.03,-0.082 -0.03,-0.09 -0.06,-0.16 -0.01,-0.012 -0.01,-0.019 -0.01,-0.019 -0.69,-1.68 -0.29,-0.879 -0.77,-2.161 -0.66,-2.429 -1.25,-5.191 -1.25,-5.191 -0.17,-0.168 -0.25,-0.418 -0.33,-0.59 -0.59,-0.828 -0.67,-1.168 -0.67,-1.168 -1.43,-1.84 -1.43,-3.261 -2.1,-4.679 -0.41,-2.012 -2.09,-4.36 -3.51,-7.872 -1.84,-2.511 -2.34,-4.101 -5.1,-6.609 -2.18,-2.43 -7.95,-5.351 -8.54,-6.109 -12.13,-7.364 -24.43,-15.063 -34.39,-25.43 -8.36,-9.543 -10.46,-21.59 -11.96,-32.051 -1.76,-1.261 -3.26,-2.59 -6.78,-5.351 -0.25,-0.59 -2.18,-1.68 -2.6,-4.438 0,0.09 -0.08,0.25 -0.16,0.25 -0.09,-1.094 -1.26,-2.183 -0.34,-5.523 0,0 0,0 -0.08,0 0.08,-0.168 0.08,-0.34 0.17,-0.418 v -1.172 c 0.08,-0.078 0.33,-3.758 0.08,-6.438 -0.08,-2.511 -0.5,-7.871 -0.59,-9.121 -0.16,-0.59 -0.16,-1.09 -0.25,-1.679 -0.08,-2.762 -2.42,-8.871 -0.75,-17.821 0.5,-1.761 1.09,-3.679 1.42,-4.351 0.34,-1 0.84,-2.008 1.34,-3.008 1.34,-1.93 0.51,-1.512 3.94,-4.352 1.17,-1.179 5.94,-2.929 6.19,-2.679 0.67,-0.25 1.34,-0.5 2.01,-0.75 3.84,-1.93 38.65,-2.008 46.1,-1.43 14.47,1.84 23.93,2.012 35.22,4.02 16.07,-0.25 32.3,-0.418 47.61,4.269 21.67,5.352 40.17,22.172 58.07,27.781 18.41,6.52 38.16,7.61 56.65,13.379 0.42,0.09 3.01,1.012 3.76,1.512 2.35,1.25 4.35,3.18 5.69,5.519 0.09,0.079 0.17,0.172 0.17,0.25 0.17,0.25 0.42,0.5 0.5,0.668 0.92,1.262 1.17,1.59 1,1.59 1.85,2.012 1.76,5.274 2.1,7.371 0.33,2.262 -0.17,4.43 -0.59,6.02 0,0 0,-0.078 0.08,-0.168 0.09,1.008 -0.33,2.348 -0.66,3.43 v 0.089 c -0.09,1 -0.17,1.84 -0.26,2.84 0.34,8.539 1.51,14.391 1.68,26.36 0.16,4.601 0.83,9.199 -0.42,13.64 -0.08,0.828 -0.84,2.59 -1.67,4.27 2.17,2 4.6,3.762 6.02,6.269 -0.08,-0.168 -0.08,-0.25 -0.08,-0.25 0.5,0.422 1.76,2.172 2.26,2.93 3.93,6.441 3.34,11.043 7.28,16.231 0.08,0.082 0.16,0.171 0.16,0.171 0,0 0.09,0.079 0.09,0.161 2.17,3.687 5.43,6.199 8.2,11.628 3.51,6.95 7.11,18.161 7.11,24.02 -0.42,5.191 -1.09,8.109 -1.59,11.461 0.5,5.099 1,7.609 5.69,13.979 0.25,0.33 0.5,0.66 0.67,1.08 0.17,0.17 0.42,0.42 0.67,0.76 1.84,2.25 3.6,4.6 4.6,7.36 1.09,3.01 1.17,8.7 1,9.54 0.92,7.78 2.85,16.4 0.42,26.52 -0.84,2.59 -0.84,2.01 -0.67,4.69 0.09,2.67 4.18,7.69 6.36,14.81 1.68,5.85 -4.1,9.53 -7.45,13.55 -2.25,2.09 -3.68,6.03 -4.6,11.13 1.68,7.7 4.52,10.79 10.38,17.74 3.01,3.68 5.19,8.53 9.2,14.56 5.44,11.54 7.28,20.83 7.95,31.12 -0.75,8.7 -5.27,16.49 -7.03,25.02 -5.6,25.1 -0.67,42.67 -0.67,67.36 -0.33,5.94 -0.75,16.31 -1.17,25.43 -0.92,7.62 -1.25,10.46 0.17,18.91 1.67,10.04 6.02,20.17 7.86,29.87 1.51,6.95 1.01,14.48 0.34,21.59 -10.04,56.06 -4.02,116.64 1.09,174.71 5.35,64.34 12.72,125.76 22.5,187.76 40.08,1.5 80.08,3.26 120.16,3.26 29.03,0.42 58.07,0.17 87.1,-0.25 15.23,-152.53 44.01,-301.81 66.01,-449.49 2.77,-13.89 2.35,-46.43 0.17,-66.6 0.92,-15.73 0,-26.44 -4.51,-42.92 -1.34,-8.29 -8.62,-16.74 -10.96,-20.92 -6.37,-12.72 -11.55,-26.86 -10.38,-41.25 1,-11.8 5.52,-24.6 6.19,-31.13 1,-6.36 0.42,-12.71 4.1,-20.5 0.84,-3.76 10.29,-12.96 16.4,-17.9 6.61,-6.03 12.63,-12.72 18.49,-19.5 5.27,-14.719 10.29,-30.121 13.31,-49.109 0.75,-6.11 3.09,-15.403 4.93,-18.75 3.35,-6.52 6.69,-8.95 9.79,-16.141 1.26,-1.68 0.76,-7.031 0.92,-12.391 -1.84,-5.429 -1.67,-12.879 -1.67,-15.89 -0.34,-8.117 -0.51,-16.989 -0.92,-24.848 -0.34,-4.859 -1.26,-7.789 -0.76,-12.641 1.17,-6.191 -0.25,-10.039 3.52,-15.308 0.08,-0.25 0.25,-0.5 0.42,-0.75 0.08,0 0.08,0 0.17,-0.09 1.92,-2.094 4.76,-3.102 7.36,-3.852 11.29,-2.171 22.84,-3.339 34.31,-3.261 0.58,0 1.25,-0.078 1.92,-0.168 0.17,0 0.33,-0.172 0.5,-0.082 0.75,0 1.51,-0.09 1.93,-0.09 0.25,-0.078 0.33,-0.078 0.33,-0.078 0.75,-0.25 1.59,-0.25 2.43,-0.332 8.36,-2.098 14.14,-4.688 25.68,-9.039"
         style="fill:#39788b;fill-opacity:1;fill-rule:nonzero;stroke:none"
         id="path34" />
    </g>
  </g>
</svg>
